<?xml version="1.0" encoding="UTF-8"?>
<svg width="245px" height="80px" viewBox="0 0 245 80" version="1.1" xmlns="http://www.w3.org/2000/svg" xmlns:xlink="http://www.w3.org/1999/xlink">
    <title>Group 20</title>
    <g id="Page-2" stroke="none" stroke-width="1" fill="none" fill-rule="evenodd">
        <g id="oneriver_layout_v1" transform="translate(0.000000, -213.000000)">
            <g id="Group-20" transform="translate(0.008850, 213.000000)">
                <g id="Group-7" fill="#000000">
                    <path d="M0,0 L244,0 L244,50 C244,66.5685425 230.568542,80 214,80 L0,80 L0,80 L0,0 Z" id="Rectangle"></path>
                </g>
                <g id="Group-13" transform="translate(29.991150, 28.000000)" fill="#FFFFFE">
                    <path d="M27.5540851,23 C29.1662689,23 30.6615712,22.7029131 32.0402178,22.1086701 C33.418708,21.5144271 34.6103614,20.6581546 35.6150564,19.5394889 C36.5730162,18.4675201 37.3090053,17.2557722 37.8232146,15.9042452 C38.3371808,14.5527182 38.5941987,13.1195755 38.5941987,11.6047997 C38.5941987,10.0902144 38.3371808,8.65707168 37.8232146,7.3055447 C37.3090053,5.95401772 36.5730162,4.7538921 35.6150564,3.7052025 C34.6103614,2.60997183 33.418708,1.76518302 32.0402178,1.17094002 C30.6615712,0.576697008 29.1662689,0.279766033 27.5540851,0.279766033 L21,0.279766033 L21,23 L27.5540851,23 Z M22.5771368,1.88758932 L27.5540851,1.88758932 C30.3579224,1.88758932 32.6593774,2.8546805 34.458537,4.78881089 C35.2763952,5.67425168 35.9012686,6.70536065 36.3336088,7.88220707 C36.7657579,9.05905348 36.9820148,10.3000043 36.9820148,11.6047997 C36.9820148,12.9330648 36.7657579,14.1856032 36.3336088,15.3624496 C35.9012686,16.5392787 35.2763952,17.570457 34.458537,18.4558978 C32.6827189,20.4367251 30.3812639,21.4270782 27.5540851,21.4270782 L22.5771368,21.4270782 L22.5771368,1.88758932 Z M57.6953357,23 L57.6953357,21.4270782 L45.8491215,21.4270782 L56.854188,0.279766033 L42.3793026,0.279766033 L42.3793026,1.88758932 L54.2255515,1.88758932 L43.18549,23 L57.6953357,23 Z M78.0231906,15.6595885 L72.8010689,3.87990038 L66.5974547,17.2325103 L63.8988109,23 L62.1463171,23 L72.8710762,0 L83,23 L81.2826575,23 L78.0231906,15.6595885 Z" id="Fill-8"></path>
                    <path d="M15,24 L15,22.3368371 L1.60330155,22.3368371 L0,22.3368371 L0,24 L15,24 Z M1.60330155,13.3137142 L12.0427436,13.3137142 L12.0427436,11.6860929 L9.44766949,11.6860929 L9.44766949,11.7575094 L0,11.7575094 L0,13.3137142 L1.60330155,13.3137142 Z M1.60330155,2.62762125 L9.44766949,2.62762125 L15,2.62762125 L15,1 L0,1 L0,2.62762125 L1.60330155,2.62762125 Z" id="Fill-9"></path>
                    <g id="Group-12" transform="translate(91.000000, 1.000000)">
                        <path d="M0.691370634,0 L95,0 L95,23 L0,23 L0,0 L0.691370634,0 Z M93.6172762,1.4070519 L1.38272381,1.4070519 L1.38272381,21.5929306 L93.6172762,21.5929306 L93.6172762,1.4070519 Z" id="Fill-10"></path>
                        <path d="M15.687679,18.0954901 L16.5983605,18.0954901 L16.5983605,11.4797056 L16.5983605,4.90461493 L15.687679,4.90461493 L15.687679,11.0332824 L7.91682673,11.0332824 L7.91682673,4.90461493 L6.98596021,4.90461493 L6.98596021,11.0332824 L6.98596021,18.0954901 L7.91682673,18.0954901 L7.91682673,11.9667176 L15.687679,11.9667176 L15.687679,18.0954901 Z M29.0237724,18.0954901 L29.0237724,17.141638 L21.4147143,17.141638 L21.4147143,11.9667176 L27.3441233,11.9667176 L27.3441233,11.0332824 L21.4147143,11.0332824 L21.4147143,5.83805018 L29.0237724,5.83805018 L29.0237724,4.90461493 L20.5040852,4.90461493 L20.5040852,18.0954901 L29.0237724,18.0954901 Z M33.6378223,18.0954901 L33.6378223,4.90461493 L32.7271932,4.90461493 L32.7271932,18.0954901 L33.6378223,18.0954901 Z M48.3298019,11.5405537 L43.0479887,11.5405537 L43.0479887,12.4537821 L47.3786282,12.4537821 L47.3786282,17.1822967 L43.5741777,17.1822967 C42.5488294,17.1822967 41.5976557,16.9218671 40.7207962,16.4009378 C39.8438145,15.8801136 39.149004,15.1799146 38.6363648,14.3005684 C38.123743,13.4211347 37.8673972,12.4605411 37.8673972,11.4188926 C37.8673972,10.3771566 38.123743,9.4199775 38.6363648,8.54725021 C39.149004,7.67469802 39.8438145,6.98125797 40.7207962,6.46717517 C41.5976557,5.95300483 42.5488294,5.6959897 43.5741777,5.6959897 C44.3566601,5.6959897 45.1121652,5.85501759 45.8406406,6.17289828 C46.5692208,6.490849 47.2033191,6.94075681 47.7428833,7.52242908 L48.4107688,6.89333911 C47.7901504,6.21686646 47.0582527,5.68924826 46.2150407,5.31037945 C45.371881,4.93161571 44.4915817,4.74215504 43.5741777,4.74215504 C42.3733632,4.74215504 41.2671702,5.04319088 40.2552844,5.6453151 C39.2435382,6.24729924 38.4407136,7.05907342 37.8471599,8.08048005 C37.2535013,9.10197424 36.9567331,10.2146967 36.9567331,11.4188926 C36.9567331,12.6365014 37.2535013,13.7559653 37.8471599,14.7774595 C38.4407136,15.7989536 39.2435382,16.6073133 40.2552844,17.202556 C41.2671702,17.7978688 42.3733632,18.0954901 43.5741777,18.0954901 L48.3298019,18.0954901 L48.3298019,11.5405537 Z M60.9372977,18.0954901 L61.8479269,18.0954901 L61.8479269,11.4797056 L61.8479269,4.90461493 L60.9372977,4.90461493 L60.9372977,11.0332824 L53.166393,11.0332824 L53.166393,4.90461493 L52.2355265,4.90461493 L52.2355265,11.0332824 L52.2355265,18.0954901 L53.166393,18.0954901 L53.166393,11.9667176 L60.9372977,11.9667176 L60.9372977,18.0954901 Z M76.0542445,4.90461493 L76.0542445,5.83805018 L70.8534157,5.83805018 L70.8534157,18.0954901 L69.9224444,18.0954901 L69.9224444,5.83805018 L64.7014655,5.83805018 L64.7014655,4.90461493 L76.0542445,4.90461493 Z M86.0511723,11.7030136 C86.6718082,12.0547766 87.1540477,12.4842149 87.4981004,12.9916963 C87.8421357,13.4989677 88.0141446,14.0435007 88.0141446,14.625243 C88.0141446,15.125913 87.8927727,15.6027515 87.6498894,16.0559162 C87.4071283,16.5092385 87.0563356,16.9049347 86.5976161,17.2431973 C85.6531824,17.9195824 84.5537293,18.257845 83.2990125,18.257845 C82.678429,18.257845 82.0847705,18.1698911 81.5181417,17.9940884 C80.9515128,17.8181806 80.4456136,17.5678194 80.0003566,17.2431973 C79.2313366,16.6749729 78.7659819,15.9781883 78.6040306,15.1529138 L79.4742549,14.6658318 C79.5147471,15.4100165 79.8789848,16.018742 80.5670902,16.4922711 C80.9178654,16.7628742 81.3293178,16.9691622 81.8014648,17.1112227 C82.2736468,17.2532832 82.7728235,17.3243572 83.2990125,17.3243572 C84.3782632,17.3243572 85.2889447,17.0469952 86.0309873,16.4922711 C86.7460002,15.964688 87.1035154,15.3423744 87.1035154,14.625243 C87.1035154,14.2058206 86.9719987,13.8135564 86.708878,13.4482755 C86.4457573,13.0829246 86.0782544,12.7717504 85.6060201,12.5147002 C85.1607456,12.2847384 84.3648007,12.1020192 83.2180805,11.9667176 C83.1235988,11.9532172 82.7829684,11.8990581 82.1960498,11.8044153 C81.6092186,11.709755 81.1066369,11.5609531 80.6883921,11.357992 C80.0273863,11.0332824 79.5079198,10.6036864 79.1302196,10.0693093 C78.7525194,9.53487961 78.5635908,8.95648175 78.5635908,8.33425579 C78.5635908,7.83358584 78.6883675,7.36343621 78.9379734,6.92377189 C79.1875268,6.48410756 79.5417244,6.09517037 80.0003566,5.75689027 C80.4456136,5.4321806 80.9515128,5.18181936 81.5181417,5.00601667 C82.0847705,4.83005638 82.678429,4.74215504 83.2990125,4.74215504 C84.5537293,4.74215504 85.6531824,5.08041763 86.5976161,5.75689027 C87.3800462,6.35211546 87.8388181,7.04215854 87.9737571,7.8268444 L87.1035154,8.31385638 C87.0900005,7.97564632 86.9922012,7.65097167 86.8101522,7.33976238 C86.6279635,7.02865815 86.3683001,6.74453719 86.0309873,6.48743451 C85.6667496,6.21686646 85.2485049,6.01057846 84.7763055,5.86853549 C84.3040711,5.72647501 83.8116343,5.65540099 83.2990125,5.65540099 C82.786286,5.65540099 82.2905316,5.72647501 81.8116097,5.86853549 C81.3326354,6.01057846 80.9178654,6.21686646 80.5670902,6.48743451 C80.2162975,6.74453719 79.9464543,7.0319851 79.757578,7.34993582 C79.5686493,7.66779899 79.4742549,7.9959932 79.4742549,8.33425579 C79.4742549,8.75362576 79.6293789,9.16961625 79.9397143,9.58229731 C80.2499624,9.99490833 80.6345422,10.3162385 81.0931744,10.5462004 C81.3764801,10.6815194 81.6901506,10.7795942 82.0341858,10.8404948 C82.3782385,10.9013953 82.8200906,10.9656229 83.3597421,11.0332824 C83.4541366,11.0467828 83.6902276,11.08063 84.0680325,11.1347892 C84.4457327,11.1888432 84.8099704,11.2632442 85.1607456,11.357992 C85.5115208,11.4526523 85.8083937,11.5676945 86.0511723,11.7030136 L86.0511723,11.7030136 Z" id="Fill-11"></path>
                    </g>
                </g>
            </g>
        </g>
    </g>
</svg>